<?xml version="1.0" standalone="no"?>
<!DOCTYPE svg PUBLIC "-//W3C//DTD SVG 20010904//EN"
 "http://www.w3.org/TR/2001/REC-SVG-20010904/DTD/svg10.dtd">
<svg version="1.0" xmlns="http://www.w3.org/2000/svg"
 width="512.000000pt" height="512.000000pt" viewBox="0 0 512.000000 512.000000"
 preserveAspectRatio="xMidYMid meet">
<metadata>
Created by potrace 1.11, written by Peter Selinger 2001-2013
</metadata>
<g transform="translate(0.000000,512.000000) scale(0.100000,-0.100000)"
fill="#000000" stroke="none">
<path d="M0 2560 l0 -2560 2560 0 2560 0 0 2560 0 2560 -2560 0 -2560 0 0
-2560z m2980 754 l0 -406 60 55 c133 124 315 171 513 133 175 -34 278 -132
334 -317 14 -47 17 -135 20 -636 l4 -583 -130 0 -131 0 0 539 c0 502 -1 543
-19 600 -37 119 -110 174 -246 187 -127 12 -245 -34 -334 -131 -85 -92 -80
-51 -74 -658 l6 -537 -136 0 -137 0 0 1080 0 1080 135 0 135 0 0 -406z m-1360
-491 c85 -142 159 -266 166 -276 10 -16 33 17 180 257 l168 276 153 0 153 0
-250 -375 -250 -376 255 -378 c140 -209 255 -382 255 -385 0 -3 -67 -6 -149
-6 l-149 0 -173 280 c-94 154 -175 280 -178 280 -3 0 -82 -125 -176 -277 -93
-151 -175 -277 -180 -280 -6 -2 -75 -2 -153 -1 l-142 3 255 382 255 382 -245
370 c-135 204 -245 373 -245 376 0 3 67 5 148 5 l148 0 154 -257z"/>
</g>
</svg>
